<svg width="505.66253662109375px" height="146px" xmlns="http://www.w3.org/2000/svg" viewBox="-2.831268310546875 2 505.66253662109375 146" style="background: rgb(29, 14, 11);" preserveAspectRatio="xMidYMid"><defs><filter id="editing-hover" x="-100%" y="-100%" width="300%" height="300%"><feFlood flood-color="#d88c51" result="flood"></feFlood><feComposite operator="in" in2="SourceAlpha" in="flood" result="shadow"></feComposite><feOffset dx="-1.1" dy="-0.4" in="SourceGraphic" result="offset-1"></feOffset><feOffset dx="1.1" dy="0.4" in="shadow" result="offset-2"></feOffset><feMerge><feMergeNode in="offset-2"></feMergeNode><feMergeNode in="offset-1"></feMergeNode></feMerge></filter></defs><g filter="url(#editing-hover)"><g transform="translate(72.67999601364136, 112.20000076293945)"><path d="M37.76-42.40L37.76-42.40L37.76-42.40Q31.28-42.40 26.56-44.56L26.56-44.56L24-31.60L39.44-31.60L39.44-31.60Q39.44-27.36 37.32-24.68L37.32-24.68L37.32-24.68Q35.20-22 31.36-22L31.36-22L31.36-22Q27.20-22 23.36-23.52L23.36-23.52L23.36-23.52Q22.56-23.84 22.48-23.92L22.48-23.92L17.92 0L0.48 0L10.64-52.80L46.32-52.80L46.32-52.80Q46.32-47.92 44.04-45.16L44.04-45.16L44.04-45.16Q41.76-42.40 37.76-42.40ZM63.44-4.40L63.44-4.40L63.44-4.40Q60.96 1.60 53.04 1.60L53.04 1.60L53.04 1.60Q49.04 1.60 46.48-1.20L46.48-1.20L46.48-1.20Q44.40-3.52 44.40-6.16L44.40-6.16L44.40-6.16Q44.40-12.16 47.20-25.28L47.20-25.28L53.04-56L69.28-57.60L61.52-17.12L61.52-17.12Q60.16-11.20 60.16-9.12L60.16-9.12L60.16-9.12Q60.16-4.56 63.44-4.40ZM89.44-4.40L89.44-4.40L89.44-4.40Q86.96 1.60 79.04 1.60L79.04 1.60L79.04 1.60Q74.96 1.60 72.40-1.20L72.40-1.20L72.40-1.20Q70.24-3.68 70.24-6.16L70.24-6.16L70.24-6.16Q70.24-12.64 73.20-25.28L73.20-25.28L76.16-40.80L92.40-42.40L87.52-17.12L87.52-17.12Q86.16-11.20 86.16-9.12L86.16-9.12L86.16-9.12Q86.16-4.56 89.44-4.40ZM77.60-51.92L77.60-51.92L77.60-51.92Q77.60-55.04 80.20-56.72L80.20-56.72L80.20-56.72Q82.80-58.40 86.56-58.40L86.56-58.40L86.56-58.40Q90.32-58.40 92.60-56.72L92.60-56.72L92.60-56.72Q94.88-55.04 94.88-51.92L94.88-51.92L94.88-51.92Q94.88-48.80 92.36-47.20L92.36-47.20L92.36-47.20Q89.84-45.60 86.08-45.60L86.08-45.60L86.08-45.60Q82.32-45.60 79.96-47.20L79.96-47.20L79.96-47.20Q77.60-48.80 77.60-51.92ZM106.88 0.24L106.88 0.24L106.88 0.24Q104.32 1.60 100.80 1.60L100.80 1.60L100.80 1.60Q97.28 1.60 95.36-0.20L95.36-0.20L95.36-0.20Q93.44-2 93.44-5.48L93.44-5.48L93.44-5.48Q93.44-8.96 95.88-12.36L95.88-12.36L95.88-12.36Q98.32-15.76 101.96-17.68L101.96-17.68L101.96-17.68Q105.60-19.60 108.16-20.72L108.16-20.72L103.12-32.32L103.12-32.32Q101.76-35.28 99.20-35.28L99.20-35.28L98.56-35.20L98.32-35.20L98.32-35.20Q98.80-38 102.08-40.16L102.08-40.16L102.08-40.16Q105.36-42.40 109.12-42.40L109.12-42.40L109.12-42.40Q115.20-42.40 118-36.32L118-36.32L118.64-35.04L122.08-26.56L122.08-26.56Q124.24-27.52 125.16-29.32L125.16-29.32L125.16-29.32Q126.08-31.12 126.08-34.68L126.08-34.68L126.08-34.68Q126.08-38.24 124.16-40.48L124.16-40.48L124.16-40.48Q127.20-42.40 131.20-42.40L131.20-42.40L131.20-42.40Q138.40-42.40 138.40-35.44L138.40-35.44L138.40-35.44Q138.40-27.84 128.88-23.44L128.88-23.44L124.08-21.20L128.40-10.08L128.40-10.08Q129.68-6.72 132-5.28L132-5.28L132-5.28Q132.96-4.64 134.08-4.56L134.08-4.56L134.08-4.56Q131.68-0.64 126.48 1.12L126.48 1.12L126.48 1.12Q124.88 1.60 122.72 1.60L122.72 1.60L122.72 1.60Q120.56 1.60 118.08 0.12L118.08 0.12L118.08 0.12Q115.60-1.36 114.72-3.68L114.72-3.68L110.32-15.12L110.32-15.12Q105.84-13.12 105.84-5.84L105.84-5.84L105.84-5.84Q105.84-2.48 106.88 0.24ZM177.84-5.48L177.84-5.48L177.84-5.48Q174.48-2.08 169.88-0.24L169.88-0.24L169.88-0.24Q165.28 1.60 160.72 1.60L160.72 1.60L160.72 1.60Q156.16 1.60 154.56 0.80L154.56 0.80L152.08 14.40L135.84 16L146.88-40.80L159.92-42.16L158.88-36.64L158.88-36.64Q162.24-42.32 169.20-42.32L169.20-42.32L169.20-42.32Q177.04-42.32 181.20-37.28L181.20-37.28L181.20-37.28Q184.88-32.72 184.88-25.76L184.88-25.76L184.88-25.76Q184.88-18.80 183.04-13.84L183.04-13.84L183.04-13.84Q181.20-8.88 177.84-5.48ZM159.76-27.92L155.52-4.48L155.52-4.48Q157.20-3.04 159.28-3.04L159.28-3.04L159.28-3.04Q161.36-3.04 162.56-3.84L162.56-3.84L162.56-3.84Q163.76-4.64 164.64-6.24L164.64-6.24L164.64-6.24Q167.04-10.56 168.96-23.68L168.96-23.68L168.96-23.68Q169.52-27.52 169.52-31.28L169.52-31.28L169.52-31.28Q169.52-35.04 168.68-36.24L168.68-36.24L168.68-36.24Q167.84-37.44 166.24-37.44L166.24-37.44L166.24-37.44Q161.36-37.44 159.76-27.92L159.76-27.92ZM222.08-13.52L222.08-13.52L222.08-13.52Q224.08-12.16 224.08-9.16L224.08-9.16L224.08-9.16Q224.08-6.16 222.56-4.24L222.56-4.24L222.56-4.24Q221.04-2.32 218.56-1.04L218.56-1.04L218.56-1.04Q213.44 1.60 207.92 1.60L207.92 1.60L207.92 1.60Q202.40 1.60 199.16 0.40L199.16 0.40L199.16 0.40Q195.92-0.80 193.76-3.04L193.76-3.04L193.76-3.04Q189.52-7.28 189.52-15.04L189.52-15.04L189.52-15.04Q189.52-27.12 196.08-34.48L196.08-34.48L196.08-34.48Q203.12-42.40 215.36-42.40L215.36-42.40L215.36-42.40Q222.96-42.40 226.72-39.20L226.72-39.20L226.72-39.20Q229.52-36.80 229.52-32.88L229.52-32.88L229.52-32.88Q229.52-18.80 205.20-18.80L205.20-18.80L205.20-18.80Q204.88-16.72 204.88-14.96L204.88-14.96L204.88-14.96Q204.88-11.28 206.52-9.88L206.52-9.88L206.52-9.88Q208.16-8.48 211.20-8.48L211.20-8.48L211.20-8.48Q214.24-8.48 217.48-9.88L217.48-9.88L217.48-9.88Q220.72-11.28 222.08-13.52ZM205.76-22.24L205.76-22.24L205.76-22.24Q211.44-22.24 214.72-25.76L214.72-25.76L214.72-25.76Q218-29.12 218-34.48L218-34.48L218-34.48Q218-36.32 217.32-37.32L217.32-37.32L217.32-37.32Q216.64-38.32 215.28-38.32L215.28-38.32L215.28-38.32Q213.92-38.32 212.76-37.80L212.76-37.80L212.76-37.80Q211.60-37.28 210.40-35.52L210.40-35.52L210.40-35.52Q207.44-31.52 205.76-22.24ZM257.44-42.40L257.44-42.40L257.44-42.40Q260.32-42.40 262.56-41.76L262.56-41.76L262.56-41.76Q262.64-42.08 262.80-42.96L262.80-42.96L263.20-45.44L263.20-45.44Q263.52-47.04 264-49.68L264-49.68L265.28-56L281.20-57.60L272.32-11.20L272.32-11.20Q272.24-10.72 272.24-9.92L272.24-9.92L272.24-8.64L272.24-8.64Q272.24-6.88 273.12-5.56L273.12-5.56L273.12-5.56Q274-4.24 275.44-4.24L275.44-4.24L275.44-4.24Q273.84-0.48 268.96 1.12L268.96 1.12L268.96 1.12Q267.28 1.60 264.92 1.60L264.92 1.60L264.92 1.60Q262.56 1.60 260.40 0.36L260.40 0.36L260.40 0.36Q258.24-0.88 257.60-2.96L257.60-2.96L257.60-2.96Q256.32-0.88 253.76 0.36L253.76 0.36L253.76 0.36Q251.20 1.60 247.48 1.60L247.48 1.60L247.48 1.60Q243.76 1.60 240.68 0.64L240.68 0.64L240.68 0.64Q237.60-0.32 235.68-2.40L235.68-2.40L235.68-2.40Q232.16-6.48 232.16-15.76L232.16-15.76L232.16-15.76Q232.16-27.76 239.20-35.04L239.20-35.04L239.20-35.04Q246.24-42.40 257.44-42.40ZM256.88-37.60L256.88-37.60L256.88-37.60Q253.92-37.60 252.32-34.40L252.32-34.40L252.32-34.40Q250.72-31.20 249.08-23.28L249.08-23.28L249.08-23.28Q247.44-15.36 247.44-8.24L247.44-8.24L247.44-8.24Q247.44-3.36 250.32-3.36L250.32-3.36L250.32-3.36Q252.88-3.36 254.68-5.92L254.68-5.92L254.68-5.92Q256.48-8.48 257.20-12.72L257.20-12.72L261.52-36.16L261.52-36.16Q259.84-37.60 256.88-37.60ZM301.44-4.40L301.44-4.40L301.44-4.40Q298.96 1.60 291.04 1.60L291.04 1.60L291.04 1.60Q286.96 1.60 284.40-1.20L284.40-1.20L284.40-1.20Q282.24-3.68 282.24-6.16L282.24-6.16L282.24-6.16Q282.24-12.64 285.20-25.28L285.20-25.28L288.16-40.80L304.40-42.40L299.52-17.12L299.52-17.12Q298.16-11.20 298.16-9.12L298.16-9.12L298.16-9.12Q298.16-4.56 301.44-4.40ZM289.60-51.92L289.60-51.92L289.60-51.92Q289.60-55.04 292.20-56.72L292.20-56.72L292.20-56.72Q294.80-58.40 298.56-58.40L298.56-58.40L298.56-58.40Q302.32-58.40 304.60-56.72L304.60-56.72L304.60-56.72Q306.88-55.04 306.88-51.92L306.88-51.92L306.88-51.92Q306.88-48.80 304.36-47.20L304.36-47.20L304.36-47.20Q301.84-45.60 298.08-45.60L298.08-45.60L298.08-45.60Q294.32-45.60 291.96-47.20L291.96-47.20L291.96-47.20Q289.60-48.80 289.60-51.92ZM311.72-2.40L311.72-2.40L311.72-2.40Q309.84-4.48 309-7.76L309-7.76L309-7.76Q308.16-11.04 308.16-16.40L308.16-16.40L308.16-16.40Q308.16-21.76 310-26.64L310-26.64L310-26.64Q311.84-31.52 315.20-35.04L315.20-35.04L315.20-35.04Q322.08-42.40 333.44-42.40L333.44-42.40L333.44-42.40Q337.52-42.40 340.48-41.04L340.48-41.04L354.16-42.40L348.24-11.20L348.24-11.20Q348-10.24 348-8.48L348-8.48L348-8.48Q348-6.72 349.08-5.60L349.08-5.60L349.08-5.60Q350.16-4.48 351.76-4.32L351.76-4.32L351.76-4.32Q350.96-1.60 348.04 0L348.04 0L348.04 0Q345.12 1.60 341.84 1.60L341.84 1.60L341.84 1.60Q338.56 1.60 336.36 0.36L336.36 0.36L336.36 0.36Q334.16-0.88 333.52-2.96L333.52-2.96L333.52-2.96Q332.24-0.96 329.52 0.32L329.52 0.32L329.52 0.32Q326.80 1.60 323.16 1.60L323.16 1.60L323.16 1.60Q319.52 1.60 316.56 0.64L316.56 0.64L316.56 0.64Q313.60-0.32 311.72-2.40ZM328.60-34.88L328.60-34.88L328.60-34.88Q327.68-33.44 326.88-31L326.88-31L326.88-31Q326.08-28.56 324.76-22.04L324.76-22.04L324.76-22.04Q323.44-15.52 323.44-10.88L323.44-10.88L323.44-10.88Q323.44-6.24 324.16-4.88L324.16-4.88L324.16-4.88Q324.88-3.52 326.16-3.52L326.16-3.52L326.16-3.52Q328.72-3.52 330.60-5.96L330.60-5.96L330.60-5.96Q332.48-8.40 333.20-12.72L333.20-12.72L337.44-36.16L337.44-36.16Q335.76-37.60 333.80-37.60L333.80-37.60L333.80-37.60Q331.84-37.60 330.68-36.96L330.68-36.96L330.68-36.96Q329.52-36.32 328.60-34.88Z" fill="#774023"></path></g></g><style>text {
  font-size: 64px;
  font-family: Arial Black;
  dominant-baseline: central;
  text-anchor: middle;
}</style></svg>